<?xml version="1.0" encoding="UTF-8"?>
<svg width="817px" height="170px" viewBox="0 0 817 170" version="1.1" xmlns="http://www.w3.org/2000/svg" xmlns:xlink="http://www.w3.org/1999/xlink">
    <!-- Generator: Sketch 53.2 (72643) - https://sketchapp.com -->
    <title>t r o o h_ AMPLOI_rein_black</title>
    <desc>Created with Sketch.</desc>
    <g id="t-r-o-o-h_-AMPLOI_rein_black" stroke="none" stroke-width="1" fill="none" fill-rule="evenodd">
        <polyline id="Fill-1" fill="#000105" points="318.332 168.744 318.332 30.68 256.994 137.488 247.29 137.488 185.952 30.68 185.952 168.744 169.381 168.744 169.381 0.607 186.423 0.607 252.022 115.696 318.092 0.607 334.911 0.607 334.911 168.744 318.332 168.744"></polyline>
        <path d="M386.863,92.359 L440.335,92.359 C445.2,92.359 449.641,91.298 453.64,89.175 C457.648,87.06 461.063,84.229 463.886,80.699 C466.717,77.169 468.911,73.081 470.485,68.446 C472.052,63.819 472.839,58.988 472.839,53.963 C472.839,48.779 471.936,43.877 470.132,39.242 C468.327,34.615 465.893,30.571 462.824,27.112 C459.763,23.662 456.153,20.954 451.995,18.982 C447.828,17.027 443.475,16.044 438.919,16.044 L386.863,16.044 L386.863,92.359 Z M370.381,168.675 L370.381,1.438 L439.627,1.438 C446.846,1.438 453.481,2.969 459.533,6.03 C465.575,9.091 470.795,13.098 475.192,18.044 C479.589,22.99 483.048,28.607 485.56,34.889 C488.064,41.17 489.33,47.531 489.33,53.963 C489.33,60.872 488.153,67.508 485.791,73.869 C483.437,80.23 480.138,85.848 475.899,90.705 C471.662,95.58 466.593,99.508 460.709,102.489 C454.817,105.47 448.262,106.966 441.042,106.966 L386.863,106.966 L386.863,168.675 L370.381,168.675 L370.381,168.675 Z" id="Fill-2" fill="#000105"></path>
        <g id="Group-6" transform="translate(511.000000, 0.000000)" fill="#000105">
            <polyline id="Fill-3" points="0.921 168.834 0.921 0.928 17.469 0.928 17.469 154.169 114.43 154.169 114.43 168.834 0.921 168.834"></polyline>
            <path d="M130.209,84.657 C130.209,93.69 131.682,102.373 134.646,110.696 C137.602,119.028 141.804,126.423 147.25,132.878 C152.705,139.342 159.16,144.481 166.633,148.296 C174.105,152.111 182.437,154.014 191.621,154.014 C200.961,154.014 209.442,151.988 217.073,147.945 C224.694,143.893 231.158,138.604 236.456,132.061 C241.745,125.527 245.832,118.134 248.718,109.881 C251.594,101.628 253.032,93.225 253.032,84.657 C253.032,75.632 251.515,66.957 248.48,58.625 C245.446,50.302 241.201,42.944 235.754,36.558 C230.299,30.174 223.844,25.078 216.371,21.262 C208.898,17.448 200.645,15.544 191.621,15.544 C182.28,15.544 173.79,17.526 166.168,21.499 C158.538,25.464 152.074,30.717 146.785,37.26 C141.497,43.794 137.409,51.197 134.524,59.441 C131.647,67.694 130.209,76.105 130.209,84.657 Z M191.621,168.722 C180.096,168.722 169.554,166.354 159.976,161.601 C150.407,156.856 142.189,150.551 135.349,142.691 C128.49,134.824 123.201,125.835 119.465,115.714 C115.728,105.6 113.86,95.252 113.86,84.657 C113.86,73.606 115.851,63.028 119.815,52.907 C123.789,42.785 129.27,33.84 136.278,26.051 C143.286,18.272 151.53,12.08 161.028,7.484 C170.527,2.897 180.798,0.599 191.857,0.599 C203.373,0.599 213.924,3.046 223.493,7.949 C233.07,12.86 241.245,19.281 248.016,27.218 C254.786,35.155 260.04,44.145 263.776,54.187 C267.513,64.23 269.381,74.465 269.381,84.893 C269.381,95.953 267.39,106.53 263.426,116.652 C259.452,126.773 254.006,135.684 247.077,143.385 C240.148,151.094 231.939,157.242 222.44,161.838 C212.951,166.425 202.672,168.722 191.621,168.722 L191.621,168.722 Z" id="Fill-5"></path>
        </g>
        <polygon id="Fill-7" fill="#000105" points="799.76 168.834 816.316 168.834 816.316 0.834 799.76 0.834"></polygon>
        <path d="M156.502,169.411 L88.881,1.334 L74.678,1.304 L69.466,1.226 C46.218,57.429 24.127,113.132 0.881,169.334 L18.881,169.334 C39.385,117.113 58.679,65.392 79.183,13.171 C98.96,65.249 118.735,117.328 138.512,169.406 C144.508,169.407 150.506,169.41 156.502,169.411" id="Fill-8" fill="#000105"></path>
        <path d="M156.502,169.411 L88.881,1.334 L74.678,1.304 L69.466,1.226 C46.218,57.429 24.127,113.132 0.881,169.334 L18.881,169.334 C39.385,117.113 58.679,65.392 79.183,13.171 C98.96,65.249 118.735,117.328 138.512,169.406 C144.508,169.407 150.506,169.41 156.502,169.411 Z" id="Stroke-9" stroke="#131514" stroke-width="1.178"></path>
    </g>
</svg>